<?xml version="1.0" encoding="UTF-8" standalone="no"?>
<!-- Created with Inkscape (http://www.inkscape.org/) -->

<svg
 
   viewBox="0 0 1167.5017 522.64062"
   version="1.1"
   id="svg5"
   inkscape:version="1.1.2 (b8e25be833, 2022-02-05)"
   sodipodi:docname="logoblack.svg"
   xmlns:inkscape="http://www.inkscape.org/namespaces/inkscape"
   xmlns:sodipodi="http://sodipodi.sourceforge.net/DTD/sodipodi-0.dtd"
   xmlns="http://www.w3.org/2000/svg"
   xmlns:svg="http://www.w3.org/2000/svg">
  <sodipodi:namedview
     id="namedview7"
     pagecolor="#505050"
     bordercolor="#ffffff"
     borderopacity="1"
     inkscape:pageshadow="0"
     inkscape:pageopacity="0"
     inkscape:pagecheckerboard="1"
     inkscape:document-units="mm"
     showgrid="false"
     units="px"
     width="5000px"
     inkscape:zoom="0.13748183"
     inkscape:cx="636.44776"
     inkscape:cy="1116.5112"
     inkscape:window-width="2048"
     inkscape:window-height="1090"
     inkscape:window-x="-6"
     inkscape:window-y="-6"
     inkscape:window-maximized="1"
     inkscape:current-layer="g25512"
     fit-margin-top="0"
     fit-margin-left="0"
     fit-margin-right="0"
     fit-margin-bottom="0" />
  <defs
     id="defs2">
    <rect
       x="400.05289"
       y="2094.8223"
       width="7586.4575"
       height="2647.6228"
       id="rect3415" />
  </defs>
  <g
     inkscape:label="Layer 1"
     inkscape:groupmode="layer"
     id="layer1"
     transform="translate(-77.70749,-400.13803)">
    <g
       id="g25512"
       transform="translate(0,145.5523)">
      <g
         id="g27515"
         style="fill:#000000;fill-opacity:1">
        <path
           style="fill:#000000;fill-opacity:1;stroke-width:0.291905"
           d="m 351.01847,613.2966 c -27.19462,-0.62266 -54.6604,-3.78506 -78.66839,-9.05745 -14.6732,-3.22228 -31.76584,-10.19963 -45.89535,-18.73475 -18.64435,-11.26228 -34.76862,-26.83835 -44.9607,-43.43209 -12.55098,-20.43422 -32.0937,-83.86095 -49.84552,-161.77587 -1.14599,-5.02984 -2.40262,-9.99277 -2.79249,-11.02853 -3.59363,-9.54739 -10.2054,-16.216 -19.18799,-19.35306 -4.02947,-1.40718 -8.01364,-2.11692 -12.179554,-2.16946 l -3.659313,-0.0414 -8.000474,-35.46646 c -4.400262,-19.50656 -8.048715,-35.66836 -8.10767,-35.91525 -0.113774,-0.47682 0.142528,-0.5306 15.253442,-3.24142 98.959719,-17.75206 206.960229,-22.84737 311.462619,-14.69453 69.35257,5.41057 140.91334,17.13074 192.57308,31.5396 17.04863,4.75523 32.2842,8.05023 45.18356,9.77194 5.70483,0.76125 23.62838,1.10837 31.52574,0.61024 12.62402,-0.79641 30.46451,-4.32899 51.54869,-10.20718 27.15806,-7.57166 61.55277,-14.80365 97.3228,-20.46349 81.74031,-12.93383 167.55363,-17.6057 252.20595,-13.73077 44.1627,2.02156 89.341,6.59331 132.8167,13.44013 11.9444,1.88109 37.2813,6.29697 37.595,6.55245 0.052,0.0414 -3.4749,15.8814 -7.826,35.20726 -4.3511,19.32596 -7.9789,35.46667 -8.0615,35.86839 -0.15,0.72609 -0.1686,0.73022 -3.5583,0.76539 -7.3788,0.0724 -14.2731,2.14381 -19.9789,5.9932 -2.6272,1.7725 -6.531,5.8966 -8.3496,8.821 -2.6687,4.29114 -3.658,7.16859 -6.0203,17.51127 -15.6743,68.62269 -31.9952,123.97457 -45.0566,152.8081 -7.0942,15.66079 -21.0904,32.14281 -37.8455,44.56725 -11.3281,8.40014 -22.946,14.8111 -36.4881,20.13489 -11.6258,4.5703 -20.1746,6.82996 -36.406,9.62259 -35.0899,6.03737 -72.0499,7.67282 -105.3139,4.66029 -26.88821,-2.43518 -52.54962,-8.0372 -74.93321,-16.35843 -7.13073,-2.65083 -13.71877,-5.4808 -22.12511,-9.50406 -4.01374,-1.92092 -8.60008,-4.10796 -10.19188,-4.86011 -10.01583,-4.73248 -23.67368,-16.4058 -35.96024,-30.73543 -19.36888,-22.58952 -39.3174,-55.03321 -57.23566,-93.08616 -3.34258,-7.09878 -30.29181,-68.89016 -31.31795,-71.80867 -1.47245,-4.18751 -3.41622,-7.21969 -6.97063,-10.87359 -5.9691,-6.13625 -13.52976,-9.62156 -24.27168,-11.18874 -8.46593,-1.23507 -19.27115,0.65472 -27.24712,4.76444 -7.43854,3.83315 -13.0608,10.06559 -15.60437,17.29789 -1.11292,3.16447 -27.7474,64.28655 -31.22861,71.6649 -21.74975,46.09843 -45.93366,83.19465 -68.70124,105.38224 -10.12402,9.86627 -19.8552,16.93381 -27.54523,20.0056 -1.28439,0.51302 -4.4216,1.97657 -6.9716,3.25229 -31.49082,15.75387 -69.70244,24.97846 -112.12564,27.06786 -6.59092,0.32478 -21.13955,0.55336 -26.85526,0.42304 z m 19.99549,-30.77163 c 36.70043,-1.58032 64.11186,-6.60872 87.68275,-16.08475 18.27004,-7.34504 34.88748,-18.31761 47.37326,-31.28071 26.9785,-28.01002 47.08349,-73.82702 56.99832,-129.89247 3.77843,-21.36583 5.30783,-37.04068 4.4207,-45.3077 -1.26564,-11.79475 -5.27833,-21.23851 -12.55401,-29.54566 -17.66778,-20.17265 -56.28796,-34.00622 -117.51263,-42.09266 -40.71502,-5.37748 -72.08991,-6.44623 -116.03223,-3.9523 -20.4288,1.15935 -50.09239,3.93741 -65.53268,6.13697 -19.9771,2.846 -34.92472,7.90346 -46.90861,15.87137 -7.32727,4.8718 -14.21729,11.41743 -18.04766,17.14564 -6.83685,10.22435 -10.8047,24.23479 -12.59248,44.46401 -0.48116,5.44461 -0.48396,24.83511 -0.004,31.23376 1.60481,21.41661 4.75274,41.14016 9.81772,61.51347 11.12643,44.75486 27.84843,79.33068 44.49582,92.00334 8.98852,6.84237 21.38447,13.39648 33.89423,17.92117 27.4685,9.93495 60.98197,13.74048 104.50199,11.86652 z m 612.98424,0.29892 c 32.0687,-1.03793 56.4363,-5.52756 78.3927,-14.44361 10.65,-4.32476 22.0234,-10.78919 29.2577,-16.62942 24.9715,-20.15961 49.6204,-92.09457 53.2018,-155.26314 0.3765,-6.63923 0.3765,-20.67139 -2e-4,-26.16605 -1.1118,-16.22542 -3.834,-28.85712 -8.4196,-39.06989 -2.6308,-5.85895 -5.7352,-10.32799 -10.4791,-15.08509 -13.4559,-13.49339 -30.6047,-21.23023 -55.971,-25.25204 -10.9975,-1.74364 -37.5529,-4.44742 -57.0675,-5.81044 -42.79306,-2.98894 -74.02712,-2.69623 -108.88055,1.02087 -77.25441,8.23817 -122.7337,24.23417 -139.79391,49.16836 -4.49842,6.57469 -7.09619,13.34838 -8.39631,21.89291 -0.74367,4.88484 -0.67127,14.23272 0.16445,21.30905 7.99149,67.68715 28.68057,121.79445 59.21234,154.85552 10.86986,11.77043 25.91658,22.56821 41.52503,29.79917 26.4689,12.26235 58.45129,18.38019 102.75064,19.65508 11.53338,0.33201 14.76001,0.33408 24.50372,0.0207 z"
           id="path39" />
        <g
           id="g27502"
           style="fill:#000000;fill-opacity:1">
          <path
             d="m 231.56143,727.3137 v 48.04757 H 202.96381 V 654.1322 h 53.2875 q 14.74287,0 23.62412,3.46369 8.97006,3.37488 14.83169,12.52256 5.86162,9.14769 5.86162,20.33807 0,21.84787 -21.04856,31.35081 l 22.38075,53.55394 H 270.55012 L 251.89949,727.3137 Z m 0,-51.60006 v 30.90675 h 17.40725 q 8.526,0 12.34494,-1.15456 3.90775,-1.24338 6.92737,-5.32875 3.01963,-4.17419 3.01963,-9.50294 0,-5.06231 -3.01963,-9.05887 -3.01962,-3.99657 -6.57212,-4.88469 -3.5525,-0.97694 -13.32188,-0.97694 z"
             style="font-size:181.888px;line-height:1.25;font-family:'Franklin Gothic Demi';-inkscape-font-specification:'Franklin Gothic Demi';fill:#000000;fill-opacity:1;stroke-width:4.54722"
             id="path27447" />
          <path
             d="m 322.50543,654.1322 h 37.03481 q 22.64719,0 33.74875,6.30569 11.10157,6.21688 19.894,19.80519 8.79244,13.4995 8.79244,34.19281 0,26.02206 -15.36456,43.51813 -15.36456,17.40725 -42.36356,17.40725 h -41.74188 z m 27.88713,22.29194 v 76.11231 h 11.72325 q 15.54218,0 23.09125,-11.54562 7.54906,-11.63444 7.54906,-27.26544 0,-11.01275 -4.35181,-20.33806 -4.263,-9.41413 -10.6575,-13.14425 -6.3945,-3.81894 -15.36457,-3.81894 z"
             style="font-size:181.888px;line-height:1.25;font-family:'Franklin Gothic Demi';-inkscape-font-specification:'Franklin Gothic Demi';fill:#000000;fill-opacity:1;stroke-width:4.54722"
             id="path27449" />
          <path
             d="m 469.22368,730.33333 v 45.02794 H 440.35961 V 654.1322 h 47.78113 q 15.98625,0 24.42344,3.46369 8.526,3.37488 15.18693,12.16731 6.66094,8.79244 6.66094,21.58144 0,8.97006 -3.5525,17.49606 -3.5525,8.526 -10.03581,13.41069 -6.48331,4.88469 -12.61138,6.48331 -6.03925,1.59863 -19.00587,1.59863 z m -0.97694,-22.0255 h 18.473 q 10.56869,0 14.83169,-4.88469 4.263,-4.88469 4.263,-11.19037 0,-7.37144 -4.79588,-11.72325 -4.70706,-4.35182 -14.38762,-4.35182 h -18.38419 z"
             style="font-size:181.888px;line-height:1.25;font-family:'Franklin Gothic Demi';-inkscape-font-specification:'Franklin Gothic Demi';fill:#000000;fill-opacity:1;stroke-width:4.54722"
             id="path27451" />
          <path
             d="m 602.53124,654.1322 37.92293,121.22907 h -30.5515 l -7.37143,-24.95632 h -39.25513 l -7.63787,24.95632 h -24.8675 L 569.5818,654.1322 Z m -32.41657,73.892 h 25.75563 l -12.87781,-42.54118 z"
             style="font-size:181.888px;line-height:1.25;font-family:'Franklin Gothic Demi';-inkscape-font-specification:'Franklin Gothic Demi';fill:#000000;fill-opacity:1;stroke-width:4.54722"
             id="path27453" />
          <path
             d="m 721.09591,654.1322 v 23.97938 h -30.01862 v 97.24969 H 662.30204 V 678.11158 H 632.10579 V 654.1322 Z"
             style="font-size:181.888px;line-height:1.25;font-family:'Franklin Gothic Demi';-inkscape-font-specification:'Franklin Gothic Demi';fill:#000000;fill-opacity:1;stroke-width:4.54722"
             id="path27455" />
          <path
             d="m 761.86087,727.3137 v 48.04757 H 733.26324 V 654.1322 h 53.2875 q 14.74288,0 23.62413,3.46369 8.97006,3.37488 14.83169,12.52256 5.86162,9.14769 5.86162,20.33807 0,21.84787 -21.04856,31.35081 l 22.38075,53.55394 H 800.84956 L 782.19893,727.3137 Z m 0,-51.60006 v 30.90675 h 17.40725 q 8.526,0 12.34494,-1.15456 3.90775,-1.24338 6.92737,-5.32875 3.01963,-4.17419 3.01963,-9.50294 0,-5.06231 -3.01963,-9.05887 -3.01962,-3.99657 -6.57212,-4.88469 -3.5525,-0.97694 -13.32188,-0.97694 z"
             style="font-size:181.888px;line-height:1.25;font-family:'Franklin Gothic Demi';-inkscape-font-specification:'Franklin Gothic Demi';fill:#000000;fill-opacity:1;stroke-width:4.54722"
             id="path27457" />
          <path
             d="M 881.13606,654.1322 V 775.36127 H 852.80487 V 654.1322 Z"
             style="font-size:181.888px;line-height:1.25;font-family:'Franklin Gothic Demi';-inkscape-font-specification:'Franklin Gothic Demi';fill:#000000;fill-opacity:1;stroke-width:4.54722"
             id="path27459" />
          <path
             d="m 1003.2533,699.24895 -29.75222,1.86507 q -0.62169,-25.66682 -19.98281,-25.66682 -22.20313,0 -22.20313,39.52157 0,22.82481 6.03925,30.99556 6.03925,8.08194 16.87438,8.08194 17.58487,0 21.49262,-22.91363 l 27.53191,1.68744 q -2.6644,21.75906 -16.25272,33.12706 -13.4995,11.27919 -33.12706,11.27919 -24.06819,0 -39.16632,-16.60794 -15.00931,-16.60794 -15.00931,-45.91606 0,-27.44306 14.56525,-44.93913 14.56525,-17.49606 39.788,-17.49606 43.69575,0 49.20216,46.98181 z"
             style="font-size:181.888px;line-height:1.25;font-family:'Franklin Gothic Demi';-inkscape-font-specification:'Franklin Gothic Demi';fill:#000000;fill-opacity:1;stroke-width:4.54722"
             id="path27461" />
          <path
             d="m 1047.4819,654.1322 v 57.01763 l 38.0117,-57.01763 h 27.1766 l -29.1305,43.25169 36.4132,77.97738 h -31.3509 l -24.0681,-52.577 -17.052,24.77868 v 27.79832 h -27.8872 V 654.1322 Z"
             style="font-size:181.888px;line-height:1.25;font-family:'Franklin Gothic Demi';-inkscape-font-specification:'Franklin Gothic Demi';fill:#000000;fill-opacity:1;stroke-width:4.54722"
             id="path27463" />
        </g>
      </g>
    </g>
    <text
       xml:space="preserve"
       transform="scale(0.26458333)"
       id="text3413"
       style="font-style:normal;font-weight:normal;font-size:666.667px;line-height:1.25;font-family:sans-serif;white-space:pre;shape-inside:url(#rect3415);fill:#000000;fill-opacity:1;stroke:none" />
  </g>
</svg>
